<?xml version="1.0" encoding="UTF-8"?><svg xmlns="http://www.w3.org/2000/svg" xmlns:xlink="http://www.w3.org/1999/xlink" contentScriptType="text/ecmascript" width="75" zoomAndPan="magnify" contentStyleType="text/css" viewBox="0 0 75 74.999997" height="74.999997" preserveAspectRatio="xMidYMid meet" version="1.0"><defs><clipPath id="clip-0"><path d="M 17.925781 10.859375 L 56.925781 10.859375 L 56.925781 59.609375 L 17.925781 59.609375 Z M 17.925781 10.859375 " clip-rule="nonzero"/></clipPath><clipPath id="clip-1"><path d="M 22.5 25.089844 L 52.5 25.089844 L 52.5 49.839844 L 22.5 49.839844 Z M 22.5 25.089844 " clip-rule="nonzero"/></clipPath></defs><g clip-path="url(#clip-0)"><path fill="rgb(11.759949%, 11.759949%, 11.759949%)" d="M 56.910156 21.484375 L 56.910156 21.332031 C 56.910156 21.332031 56.910156 21.257812 56.871094 21.21875 L 56.871094 21.179688 C 56.871094 21.140625 56.832031 21.105469 56.832031 21.066406 L 56.832031 21.027344 C 56.796875 20.988281 56.757812 20.953125 56.757812 20.914062 L 46.824219 11.011719 C 46.785156 10.972656 46.746094 10.933594 46.710938 10.933594 L 46.671875 10.933594 C 46.632812 10.898438 46.59375 10.898438 46.554688 10.898438 L 46.519531 10.898438 C 46.480469 10.898438 46.441406 10.859375 46.402344 10.859375 C 46.367188 10.859375 46.289062 10.859375 46.25 10.859375 L 20.234375 10.859375 C 18.972656 10.859375 17.941406 11.886719 17.941406 13.144531 L 17.941406 57.324219 C 17.941406 58.582031 18.972656 59.609375 20.234375 59.609375 L 54.617188 59.609375 C 55.878906 59.609375 56.910156 58.582031 56.910156 57.324219 Z M 55.382812 57.285156 C 55.382812 57.703125 55.039062 58.046875 54.617188 58.046875 L 20.234375 58.046875 C 19.8125 58.046875 19.46875 57.703125 19.46875 57.285156 L 19.46875 13.105469 C 19.46875 12.6875 19.8125 12.34375 20.234375 12.34375 L 45.449219 12.34375 L 45.449219 18.933594 C 45.449219 20.761719 46.9375 22.246094 48.773438 22.246094 L 55.382812 22.246094 Z M 55.382812 57.285156 " fill-opacity="1" fill-rule="nonzero"/></g><g clip-path="url(#clip-1)"><path fill="rgb(11.759949%, 11.759949%, 11.759949%)" d="M 28.324219 49.757812 C 26.726562 49.449219 24.34375 48.574219 23.519531 47.992188 C 22.714844 47.425781 22.511719 46.828125 22.875 46.09375 C 23.167969 45.5 23.6875 45.289062 24.734375 45.339844 C 26.863281 45.445312 27.078125 45.425781 27.535156 45.082031 C 27.773438 44.90625 28.855469 43.925781 29.941406 42.90625 C 31.03125 41.882812 32.257812 40.78125 32.671875 40.457031 C 33.085938 40.132812 33.578125 39.636719 33.769531 39.351562 L 34.113281 38.839844 L 33.625 37.699219 C 33.203125 36.722656 33.136719 36.441406 33.136719 35.695312 C 33.140625 34.097656 33.515625 33.097656 34.453125 32.214844 C 35.265625 31.449219 36.378906 30.988281 38.777344 30.425781 C 41.886719 29.699219 42.84375 29.390625 43.757812 28.824219 C 44.960938 28.074219 46.777344 26.769531 47.492188 26.132812 C 48.558594 25.191406 49.167969 25.09375 49.457031 25.820312 C 49.648438 26.304688 49.539062 26.777344 49.03125 27.660156 C 48.804688 28.054688 48.621094 28.414062 48.625 28.457031 C 48.625 28.503906 48.738281 28.675781 48.871094 28.84375 C 49.113281 29.148438 49.113281 29.148438 49.496094 28.917969 C 49.707031 28.789062 50.101562 28.496094 50.371094 28.265625 C 51.078125 27.664062 51.546875 27.515625 51.921875 27.769531 C 52.488281 28.164062 52.429688 28.894531 51.742188 29.980469 C 51.394531 30.535156 51.390625 30.546875 51.613281 30.800781 C 51.890625 31.113281 52.03125 31.839844 51.921875 32.375 C 51.875 32.59375 51.671875 32.96875 51.472656 33.207031 C 51.117188 33.632812 51.113281 33.648438 51.328125 33.898438 C 51.648438 34.269531 51.605469 34.914062 51.226562 35.433594 C 50.800781 36.019531 49.886719 36.710938 49.21875 36.949219 C 48.773438 37.109375 48.683594 37.191406 48.710938 37.425781 C 48.789062 38.109375 48.5 38.546875 47.425781 39.390625 C 47.398438 39.414062 47.4375 39.5 47.515625 39.578125 C 47.957031 40.039062 47.449219 40.929688 46.589844 41.199219 C 46.257812 41.304688 46.113281 41.445312 45.960938 41.816406 C 45.585938 42.738281 44.125 43.347656 42.832031 43.117188 C 42.417969 43.046875 42.070312 42.992188 42.058594 43 C 42.046875 43.007812 41.988281 43.484375 41.921875 44.058594 C 41.765625 45.425781 41.425781 45.992188 40.476562 46.457031 C 39.832031 46.773438 39.691406 46.792969 37.867188 46.804688 L 35.941406 46.816406 L 35.109375 47.277344 C 34.648438 47.53125 33.898438 48.023438 33.433594 48.367188 C 31.960938 49.472656 31.269531 49.761719 29.988281 49.816406 C 29.375 49.839844 28.625 49.816406 28.324219 49.757812 Z M 30.480469 48.988281 C 31.378906 48.835938 31.839844 48.605469 33.035156 47.707031 C 33.523438 47.34375 34.125 46.929688 34.371094 46.792969 C 34.785156 46.5625 34.816406 46.503906 34.816406 45.976562 C 34.8125 45.175781 34.632812 44.574219 34.175781 43.871094 C 33.757812 43.230469 32.441406 42.195312 32.039062 42.195312 C 31.910156 42.195312 30.972656 42.976562 29.921875 43.960938 C 28.882812 44.933594 27.816406 45.839844 27.554688 45.972656 C 26.996094 46.253906 26.667969 46.277344 25.015625 46.152344 C 23.800781 46.0625 23.800781 46.0625 23.597656 46.386719 C 23.441406 46.640625 23.425781 46.769531 23.527344 46.96875 C 23.796875 47.496094 26.835938 48.730469 28.472656 48.976562 C 29.53125 49.132812 29.617188 49.132812 30.476562 48.988281 Z M 40.222656 45.714844 C 40.96875 45.285156 41.191406 44.777344 41.148438 43.59375 C 41.117188 42.691406 41.101562 42.652344 40.683594 42.296875 C 40.085938 41.789062 38.847656 41.472656 37.65625 41.519531 C 36.671875 41.558594 36.210938 41.753906 35.355469 42.496094 C 35.023438 42.785156 35.007812 42.828125 35.164062 43.101562 C 35.617188 43.875 35.902344 44.617188 35.984375 45.234375 C 36.078125 45.902344 36.082031 45.910156 36.558594 45.992188 C 36.820312 46.039062 37.632812 46.066406 38.359375 46.050781 C 39.511719 46.027344 39.753906 45.980469 40.222656 45.714844 Z M 44.71875 42.027344 C 44.980469 41.875 45.214844 41.652344 45.234375 41.535156 C 45.269531 41.347656 45.175781 41.3125 44.636719 41.308594 C 44.285156 41.308594 43.757812 41.253906 43.464844 41.195312 C 42.957031 41.09375 42.90625 41.113281 42.425781 41.546875 C 42.148438 41.800781 41.941406 42.03125 41.96875 42.058594 C 41.992188 42.085938 42.269531 42.183594 42.585938 42.273438 C 43.292969 42.480469 44.085938 42.386719 44.71875 42.027344 Z M 34.894531 41.300781 C 35.339844 40.945312 35.828125 40.597656 35.980469 40.523438 C 36.277344 40.382812 36.273438 40.304688 35.941406 39.46875 C 35.796875 39.109375 35.714844 39.050781 35.363281 39.050781 C 35.019531 39.050781 34.882812 39.148438 34.449219 39.710938 C 34.167969 40.074219 33.746094 40.554688 33.507812 40.78125 C 33.140625 41.132812 33.105469 41.210938 33.265625 41.3125 C 33.371094 41.378906 33.585938 41.542969 33.746094 41.683594 C 33.90625 41.824219 34.046875 41.9375 34.058594 41.941406 C 34.070312 41.941406 34.449219 41.65625 34.894531 41.300781 Z M 42.164062 40.738281 C 42.261719 40.515625 42.253906 40.390625 42.136719 40.246094 C 42.007812 40.082031 41.710938 40.054688 40.351562 40.085938 C 38.78125 40.117188 38.714844 40.128906 38.679688 40.390625 C 38.636719 40.714844 38.953125 40.847656 40.398438 41.101562 C 41.492188 41.296875 41.960938 41.199219 42.164062 40.738281 Z M 37.9375 40.246094 C 37.9375 39.773438 37.867188 39.601562 37.515625 39.214844 C 37.011719 38.652344 36.902344 38.132812 37.082031 37.1875 C 37.242188 36.347656 37.675781 35.609375 38.210938 35.269531 C 39.019531 34.753906 40.621094 34.257812 42.535156 33.9375 C 46.207031 33.320312 48.835938 32.148438 50.472656 30.390625 C 51.070312 29.75 51.710938 28.570312 51.5 28.496094 C 51.429688 28.472656 51.089844 28.675781 50.746094 28.953125 C 50.402344 29.230469 49.632812 29.761719 49.039062 30.136719 C 46.148438 31.960938 45.558594 32.195312 42.601562 32.691406 C 37.632812 33.523438 36.71875 34.035156 36.269531 36.253906 C 36.195312 36.621094 36.136719 37.101562 36.136719 37.324219 C 36.132812 37.933594 37.085938 40.660156 37.320312 40.726562 C 37.871094 40.882812 37.9375 40.832031 37.9375 40.246094 Z M 46.523438 40.378906 C 46.949219 40.191406 47.070312 39.886719 46.769531 39.761719 C 46.675781 39.726562 45.902344 39.683594 45.054688 39.667969 C 43.496094 39.640625 42.976562 39.757812 42.976562 40.144531 C 42.976562 40.503906 45.808594 40.691406 46.523438 40.378906 Z M 42.761719 39.152344 C 43.320312 38.976562 43.527344 38.664062 43.332031 38.285156 C 43.242188 38.105469 43.136719 38.050781 43 38.109375 C 42.886719 38.15625 41.746094 38.222656 40.457031 38.253906 C 39.167969 38.285156 38.039062 38.339844 37.945312 38.371094 C 37.824219 38.410156 37.890625 38.546875 38.1875 38.859375 L 38.597656 39.292969 L 40.441406 39.296875 C 41.523438 39.300781 42.484375 39.238281 42.761719 39.152344 Z M 47.378906 38.46875 C 47.660156 38.230469 47.855469 37.953125 47.878906 37.746094 C 47.921875 37.34375 47.933594 37.34375 45.917969 37.601562 C 45.125 37.699219 44.363281 37.785156 44.21875 37.785156 C 43.980469 37.789062 43.96875 37.824219 44.085938 38.199219 C 44.15625 38.425781 44.234375 38.683594 44.257812 38.777344 C 44.289062 38.90625 44.589844 38.9375 45.609375 38.902344 C 46.867188 38.863281 46.9375 38.84375 47.378906 38.46875 Z M 35.535156 38.183594 C 35.535156 38.125 35.378906 37.867188 35.183594 37.613281 C 34.761719 37.054688 34.648438 36.433594 34.808594 35.558594 C 35.011719 34.445312 35.421875 33.953125 36.667969 33.320312 C 37.796875 32.746094 38.027344 32.671875 40.945312 31.9375 C 43.609375 31.269531 45.195312 30.511719 46.867188 29.097656 C 47.738281 28.363281 48.308594 27.601562 48.675781 26.679688 C 48.933594 26.027344 48.714844 26.058594 47.894531 26.789062 C 46.644531 27.910156 43.871094 29.753906 42.808594 30.175781 C 42.402344 30.335938 41.15625 30.671875 40.035156 30.925781 C 35.898438 31.855469 34.84375 32.371094 34.234375 33.75 C 33.980469 34.328125 33.921875 34.644531 33.921875 35.523438 C 33.917969 36.488281 33.957031 36.679688 34.316406 37.445312 C 34.695312 38.246094 34.742188 38.292969 35.125 38.292969 C 35.351562 38.292969 35.535156 38.246094 35.535156 38.183594 Z M 42.925781 37.285156 C 43.121094 37.207031 43.371094 37.054688 43.484375 36.949219 C 43.667969 36.769531 43.671875 36.71875 43.511719 36.390625 C 43.339844 36.046875 43.316406 36.039062 43.054688 36.214844 C 42.761719 36.417969 40.605469 36.652344 39.011719 36.65625 C 38.03125 36.65625 37.816406 36.769531 37.816406 37.269531 L 37.816406 37.578125 L 40.195312 37.5 C 41.503906 37.457031 42.730469 37.359375 42.925781 37.285156 Z M 46.683594 36.714844 C 48.839844 36.386719 49.460938 36.136719 50.390625 35.226562 C 50.804688 34.820312 50.882812 34.511719 50.621094 34.285156 C 50.5 34.179688 50.257812 34.25 49.628906 34.578125 C 48.640625 35.09375 47.019531 35.566406 45.480469 35.785156 C 44.863281 35.875 44.339844 35.960938 44.320312 35.976562 C 44.300781 35.988281 44.320312 36.207031 44.363281 36.457031 C 44.441406 36.886719 44.46875 36.910156 44.925781 36.910156 C 45.191406 36.910156 45.980469 36.820312 46.683594 36.714844 Z M 41.117188 35.765625 C 41.910156 35.691406 42.628906 35.566406 42.714844 35.492188 C 42.800781 35.414062 42.953125 35.191406 43.054688 34.988281 L 43.234375 34.625 L 42.65625 34.710938 C 41.015625 34.953125 38.894531 35.597656 38.710938 35.910156 C 38.671875 35.976562 38.867188 36 39.160156 35.964844 C 39.445312 35.933594 40.324219 35.84375 41.117188 35.765625 Z M 35.828125 35.019531 C 35.882812 34.800781 35.875 34.765625 35.796875 34.894531 C 35.734375 35 35.648438 35.226562 35.605469 35.398438 C 35.546875 35.617188 35.558594 35.65625 35.636719 35.523438 C 35.695312 35.421875 35.78125 35.195312 35.828125 35.019531 Z M 46.636719 34.757812 C 48.238281 34.40625 49.234375 34 50.203125 33.308594 C 51.097656 32.671875 51.367188 32.179688 51.148438 31.578125 C 51.082031 31.394531 50.972656 31.246094 50.910156 31.246094 C 50.847656 31.246094 50.371094 31.5625 49.855469 31.949219 C 49.339844 32.339844 48.621094 32.8125 48.257812 33.007812 C 47.394531 33.464844 45.621094 34.117188 44.726562 34.308594 C 44.109375 34.441406 44 34.507812 43.929688 34.796875 C 43.882812 34.980469 43.863281 35.152344 43.890625 35.179688 C 43.964844 35.257812 45.3125 35.050781 46.636719 34.757812 Z M 46.339844 30.820312 C 48.039062 29.910156 48.382812 29.683594 48.347656 29.484375 C 48.285156 29.121094 47.90625 29.222656 47.253906 29.777344 C 46.890625 30.085938 46.253906 30.550781 45.835938 30.804688 C 44.953125 31.347656 44.921875 31.371094 45.148438 31.367188 C 45.242188 31.367188 45.777344 31.121094 46.339844 30.820312 Z M 46.339844 30.820312 " fill-opacity="1" fill-rule="nonzero"/></g></svg>