<?xml version="1.0" encoding="UTF-8"?><svg xmlns="http://www.w3.org/2000/svg" xmlns:xlink="http://www.w3.org/1999/xlink" contentScriptType="text/ecmascript" width="112.5" zoomAndPan="magnify" contentStyleType="text/css" viewBox="0 0 112.5 112.499997" height="112.499997" preserveAspectRatio="xMidYMid meet" version="1.0"><defs><clipPath id="clip-0"><path d="M 34 38 L 78.75 38 L 78.75 75.136719 L 34 75.136719 Z M 34 38 " clip-rule="nonzero"/></clipPath><clipPath id="clip-1"><path d="M 26.886719 19.433594 L 85.386719 19.433594 L 85.386719 92.933594 L 26.886719 92.933594 Z M 26.886719 19.433594 " clip-rule="nonzero"/></clipPath></defs><g clip-path="url(#clip-0)"><path fill="rgb(100%, 100%, 100%)" d="M 42.484375 75.007812 C 40.089844 74.542969 36.515625 73.214844 35.273438 72.335938 C 34.066406 71.476562 33.765625 70.574219 34.308594 69.460938 C 34.746094 68.5625 35.527344 68.242188 37.097656 68.320312 C 40.296875 68.476562 40.613281 68.449219 41.300781 67.929688 C 41.65625 67.660156 43.28125 66.175781 44.914062 64.625 C 46.542969 63.078125 48.386719 61.410156 49.007812 60.917969 C 49.628906 60.425781 50.367188 59.675781 50.652344 59.246094 L 51.167969 58.464844 L 50.433594 56.742188 C 49.804688 55.257812 49.703125 54.832031 49.703125 53.707031 C 49.707031 51.285156 50.273438 49.765625 51.675781 48.433594 C 52.898438 47.269531 54.570312 46.570312 58.164062 45.722656 C 62.832031 44.617188 64.265625 44.152344 65.636719 43.289062 C 67.441406 42.160156 70.167969 40.179688 71.242188 39.21875 C 72.835938 37.789062 73.753906 37.640625 74.1875 38.742188 C 74.472656 39.476562 74.3125 40.195312 73.550781 41.53125 C 73.210938 42.128906 72.933594 42.671875 72.9375 42.738281 C 72.941406 42.804688 73.109375 43.066406 73.308594 43.324219 C 73.671875 43.785156 73.671875 43.785156 74.246094 43.433594 C 74.5625 43.238281 75.15625 42.792969 75.5625 42.445312 C 76.621094 41.535156 77.324219 41.308594 77.882812 41.699219 C 78.738281 42.289062 78.652344 43.402344 77.617188 45.046875 C 77.09375 45.886719 77.089844 45.90625 77.425781 46.285156 C 77.839844 46.757812 78.050781 47.863281 77.882812 48.675781 C 77.816406 49.007812 77.511719 49.574219 77.214844 49.9375 C 76.679688 50.578125 76.675781 50.605469 76.996094 50.980469 C 77.476562 51.542969 77.414062 52.519531 76.84375 53.308594 C 76.207031 54.195312 74.832031 55.242188 73.832031 55.601562 C 73.164062 55.84375 73.03125 55.96875 73.070312 56.324219 C 73.1875 57.359375 72.753906 58.027344 71.144531 59.300781 C 71.101562 59.335938 71.160156 59.464844 71.277344 59.589844 C 71.9375 60.289062 71.171875 61.636719 69.886719 62.042969 C 69.386719 62.203125 69.171875 62.417969 68.945312 62.976562 C 68.382812 64.378906 66.1875 65.300781 64.25 64.953125 C 63.625 64.839844 63.105469 64.757812 63.089844 64.769531 C 63.074219 64.785156 62.980469 65.507812 62.882812 66.375 C 62.648438 68.449219 62.136719 69.300781 60.71875 70.007812 C 59.75 70.488281 59.539062 70.515625 56.804688 70.535156 L 53.910156 70.550781 L 52.660156 71.25 C 51.972656 71.636719 50.84375 72.378906 50.152344 72.90625 C 47.9375 74.578125 46.898438 75.015625 44.980469 75.097656 C 44.0625 75.136719 42.9375 75.097656 42.484375 75.007812 Z M 45.714844 73.84375 C 47.070312 73.609375 47.757812 73.261719 49.550781 71.90625 C 50.285156 71.351562 51.183594 70.726562 51.554688 70.519531 C 52.175781 70.167969 52.222656 70.082031 52.222656 69.28125 C 52.21875 68.066406 51.945312 67.160156 51.261719 66.09375 C 50.636719 65.121094 48.660156 63.554688 48.058594 63.554688 C 47.863281 63.554688 46.457031 64.738281 44.878906 66.230469 C 43.320312 67.703125 41.722656 69.070312 41.328125 69.273438 C 40.488281 69.703125 39.996094 69.738281 37.523438 69.550781 C 35.699219 69.410156 35.695312 69.410156 35.394531 69.902344 C 35.15625 70.285156 35.132812 70.480469 35.285156 70.785156 C 35.691406 71.582031 40.25 73.453125 42.707031 73.824219 C 44.296875 74.066406 44.425781 74.066406 45.714844 73.84375 Z M 60.332031 68.882812 C 61.453125 68.230469 61.785156 67.464844 61.726562 65.671875 C 61.679688 64.304688 61.65625 64.242188 61.027344 63.703125 C 60.128906 62.9375 58.273438 62.457031 56.480469 62.527344 C 55.007812 62.585938 54.316406 62.882812 53.03125 64.007812 C 52.53125 64.445312 52.511719 64.511719 52.746094 64.921875 C 53.421875 66.09375 53.851562 67.222656 53.976562 68.15625 C 54.117188 69.167969 54.125 69.183594 54.835938 69.308594 C 55.230469 69.378906 56.449219 69.414062 57.539062 69.390625 C 59.265625 69.355469 59.632812 69.289062 60.332031 68.882812 Z M 67.078125 63.296875 C 67.472656 63.066406 67.824219 62.730469 67.855469 62.550781 C 67.90625 62.269531 67.769531 62.21875 66.957031 62.210938 C 66.429688 62.207031 65.636719 62.128906 65.199219 62.039062 C 64.4375 61.882812 64.359375 61.910156 63.640625 62.570312 C 63.222656 62.953125 62.914062 63.300781 62.953125 63.34375 C 62.988281 63.386719 63.40625 63.535156 63.878906 63.671875 C 64.941406 63.984375 66.132812 63.84375 67.078125 63.296875 Z M 52.339844 62.195312 C 53.007812 61.660156 53.742188 61.132812 53.972656 61.019531 C 54.414062 60.808594 54.410156 60.6875 53.910156 59.421875 C 53.695312 58.878906 53.570312 58.785156 53.046875 58.785156 C 52.527344 58.785156 52.324219 58.933594 51.671875 59.785156 C 51.253906 60.335938 50.617188 61.070312 50.261719 61.414062 C 49.707031 61.941406 49.65625 62.0625 49.898438 62.214844 C 50.054688 62.3125 50.378906 62.566406 50.617188 62.777344 C 50.855469 62.988281 51.066406 63.164062 51.085938 63.164062 C 51.105469 63.167969 51.671875 62.734375 52.339844 62.195312 Z M 63.25 61.34375 C 63.390625 61.007812 63.382812 60.820312 63.207031 60.597656 C 63.015625 60.351562 62.566406 60.308594 60.523438 60.355469 C 58.171875 60.40625 58.074219 60.421875 58.019531 60.816406 C 57.953125 61.308594 58.433594 61.507812 60.597656 61.898438 C 62.242188 62.195312 62.945312 62.046875 63.246094 61.34375 Z M 56.90625 60.597656 C 56.90625 59.878906 56.800781 59.625 56.277344 59.035156 C 55.519531 58.183594 55.351562 57.398438 55.625 55.964844 C 55.863281 54.691406 56.515625 53.574219 57.316406 53.058594 C 58.527344 52.273438 60.933594 51.527344 63.804688 51.042969 C 69.316406 50.109375 73.257812 48.328125 75.710938 45.667969 C 76.609375 44.691406 77.566406 42.90625 77.25 42.796875 C 77.148438 42.757812 76.636719 43.070312 76.121094 43.488281 C 75.605469 43.90625 74.453125 44.714844 73.5625 45.28125 C 69.226562 48.042969 68.335938 48.398438 63.902344 49.152344 C 56.445312 50.410156 55.078125 51.191406 54.40625 54.550781 C 54.292969 55.105469 54.203125 55.835938 54.203125 56.171875 C 54.203125 57.09375 55.628906 61.230469 55.980469 61.328125 C 56.808594 61.5625 56.90625 61.484375 56.90625 60.597656 Z M 69.785156 60.796875 C 70.425781 60.515625 70.609375 60.050781 70.15625 59.867188 C 70.015625 59.808594 68.859375 59.746094 67.585938 59.722656 C 65.246094 59.683594 64.46875 59.863281 64.46875 60.445312 C 64.46875 60.988281 68.714844 61.273438 69.785156 60.796875 Z M 64.144531 58.941406 C 64.980469 58.675781 65.289062 58.199219 65 57.625 C 64.863281 57.359375 64.703125 57.273438 64.5 57.363281 C 64.332031 57.433594 62.617188 57.53125 60.6875 57.582031 C 58.753906 57.628906 57.058594 57.707031 56.917969 57.757812 C 56.734375 57.820312 56.835938 58.023438 57.28125 58.5 L 57.894531 59.15625 L 60.664062 59.160156 C 62.285156 59.164062 63.730469 59.074219 64.140625 58.941406 Z M 71.070312 57.90625 C 71.496094 57.542969 71.785156 57.121094 71.816406 56.8125 C 71.886719 56.203125 71.902344 56.203125 68.878906 56.589844 C 67.691406 56.742188 66.542969 56.867188 66.328125 56.871094 C 65.972656 56.878906 65.957031 56.925781 66.132812 57.496094 C 66.238281 57.839844 66.351562 58.234375 66.386719 58.371094 C 66.4375 58.570312 66.886719 58.613281 68.414062 58.5625 C 70.300781 58.5 70.40625 58.476562 71.070312 57.90625 Z M 53.304688 57.476562 C 53.304688 57.386719 53.066406 56.996094 52.777344 56.613281 C 52.140625 55.761719 51.96875 54.824219 52.210938 53.496094 C 52.515625 51.808594 53.128906 51.0625 55 50.105469 C 56.691406 49.238281 57.039062 49.125 61.421875 48.011719 C 65.414062 47 67.792969 45.847656 70.300781 43.707031 C 71.613281 42.59375 72.464844 41.441406 73.015625 40.042969 C 73.40625 39.054688 73.074219 39.101562 71.847656 40.210938 C 69.972656 41.90625 65.808594 44.703125 64.210938 45.339844 C 63.605469 45.582031 61.734375 46.089844 60.054688 46.472656 C 53.84375 47.886719 52.265625 48.664062 51.351562 50.753906 C 50.96875 51.632812 50.886719 52.109375 50.878906 53.445312 C 50.875 54.90625 50.933594 55.195312 51.476562 56.355469 C 52.042969 57.566406 52.113281 57.640625 52.691406 57.640625 C 53.027344 57.640625 53.304688 57.566406 53.304688 57.476562 Z M 64.390625 56.109375 C 64.679688 55.992188 65.054688 55.765625 65.226562 55.601562 C 65.507812 55.332031 65.511719 55.253906 65.265625 54.757812 C 65.011719 54.238281 64.976562 54.222656 64.585938 54.492188 C 64.144531 54.796875 60.910156 55.152344 58.515625 55.160156 C 57.046875 55.160156 56.722656 55.328125 56.722656 56.089844 L 56.722656 56.558594 L 60.292969 56.441406 C 62.257812 56.375 64.101562 56.226562 64.390625 56.109375 Z M 70.027344 55.25 C 73.261719 54.753906 74.195312 54.371094 75.589844 52.996094 C 76.210938 52.378906 76.324219 51.90625 75.933594 51.566406 C 75.753906 51.40625 75.390625 51.515625 74.449219 52.011719 C 72.960938 52.792969 70.53125 53.507812 68.21875 53.84375 C 67.296875 53.976562 66.515625 54.105469 66.484375 54.125 C 66.453125 54.148438 66.480469 54.476562 66.546875 54.855469 C 66.664062 55.507812 66.703125 55.542969 67.390625 55.542969 C 67.789062 55.542969 68.976562 55.410156 70.027344 55.25 Z M 61.675781 53.8125 C 62.867188 53.695312 63.945312 53.507812 64.074219 53.394531 C 64.207031 53.28125 64.433594 52.9375 64.582031 52.632812 L 64.851562 52.082031 L 63.984375 52.210938 C 61.523438 52.582031 58.34375 53.558594 58.066406 54.03125 C 58.011719 54.128906 58.304688 54.164062 58.742188 54.113281 C 59.167969 54.066406 60.488281 53.929688 61.675781 53.8125 Z M 53.738281 52.683594 C 53.824219 52.351562 53.808594 52.292969 53.695312 52.492188 C 53.601562 52.648438 53.472656 52.992188 53.40625 53.253906 C 53.324219 53.585938 53.335938 53.644531 53.453125 53.445312 C 53.542969 53.289062 53.675781 52.945312 53.738281 52.683594 Z M 69.957031 52.285156 C 72.359375 51.746094 73.855469 51.132812 75.308594 50.089844 C 76.648438 49.125 77.050781 48.378906 76.722656 47.464844 C 76.625 47.1875 76.464844 46.960938 76.367188 46.960938 C 76.273438 46.960938 75.5625 47.441406 74.789062 48.03125 C 74.015625 48.617188 72.9375 49.335938 72.390625 49.628906 C 71.09375 50.324219 68.433594 51.3125 67.089844 51.605469 C 66.167969 51.804688 66.003906 51.90625 65.894531 52.34375 C 65.824219 52.621094 65.796875 52.882812 65.835938 52.925781 C 65.949219 53.042969 67.972656 52.726562 69.957031 52.285156 Z M 69.511719 46.320312 C 72.058594 44.941406 72.578125 44.59375 72.527344 44.292969 C 72.429688 43.738281 71.863281 43.894531 70.886719 44.738281 C 70.339844 45.207031 69.382812 45.90625 68.757812 46.292969 C 67.429688 47.117188 67.386719 47.152344 67.722656 47.148438 C 67.863281 47.148438 68.667969 46.773438 69.511719 46.320312 Z M 69.511719 46.320312 " fill-opacity="1" fill-rule="nonzero"/></g><g clip-path="url(#clip-1)"><path fill="rgb(100%, 100%, 100%)" d="M 85.363281 35.453125 L 85.363281 35.222656 C 85.363281 35.222656 85.363281 35.109375 85.304688 35.050781 L 85.304688 34.996094 C 85.304688 34.9375 85.25 34.878906 85.25 34.820312 L 85.25 34.765625 C 85.191406 34.707031 85.132812 34.648438 85.132812 34.59375 L 70.234375 19.664062 C 70.179688 19.605469 70.121094 19.546875 70.0625 19.546875 L 70.007812 19.546875 C 69.949219 19.492188 69.890625 19.492188 69.835938 19.492188 L 69.777344 19.492188 C 69.71875 19.492188 69.664062 19.433594 69.605469 19.433594 C 69.546875 19.433594 69.433594 19.433594 69.375 19.433594 L 30.351562 19.433594 C 28.460938 19.433594 26.914062 20.984375 26.914062 22.878906 L 26.914062 89.488281 C 26.914062 91.382812 28.460938 92.933594 30.351562 92.933594 L 81.925781 92.933594 C 83.816406 92.933594 85.363281 91.382812 85.363281 89.488281 Z M 83.070312 89.429688 C 83.070312 90.0625 82.554688 90.578125 81.925781 90.578125 L 30.351562 90.578125 C 29.722656 90.578125 29.207031 90.0625 29.207031 89.429688 L 29.207031 22.820312 C 29.207031 22.1875 29.722656 21.671875 30.351562 21.671875 L 68.171875 21.671875 L 68.171875 31.605469 C 68.171875 34.363281 70.40625 36.601562 73.15625 36.601562 L 83.070312 36.601562 Z M 83.070312 89.429688 " fill-opacity="1" fill-rule="nonzero"/></g></svg>